<?xml version="1.0" encoding="UTF-8" standalone="no"?>
<!-- Created with Inkscape (http://www.inkscape.org/) -->

<svg
   width="1028"
   height="1028"
   viewBox="0 0 271.99163 271.99163"
   version="1.1"
   id="svg1"
   inkscape:version="1.4.3 (0d15f75042, 2025-12-25)"
   sodipodi:docname="cool-sun.svg"
   inkscape:export-filename="cool-sun.png"
   inkscape:export-xdpi="96"
   inkscape:export-ydpi="96"
   xmlns:inkscape="http://www.inkscape.org/namespaces/inkscape"
   xmlns:sodipodi="http://sodipodi.sourceforge.net/DTD/sodipodi-0.dtd"
   xmlns="http://www.w3.org/2000/svg"
   xmlns:svg="http://www.w3.org/2000/svg">
  <sodipodi:namedview
     id="namedview1"
     pagecolor="#505050"
     bordercolor="#eeeeee"
     borderopacity="1"
     inkscape:showpageshadow="0"
     inkscape:pageopacity="0"
     inkscape:pagecheckerboard="true"
     inkscape:deskcolor="#505050"
     inkscape:document-units="px"
     inkscape:zoom="0.51375727"
     inkscape:cx="254.98423"
     inkscape:cy="500.23623"
     inkscape:window-width="1707"
     inkscape:window-height="995"
     inkscape:window-x="0"
     inkscape:window-y="0"
     inkscape:window-maximized="1"
     inkscape:current-layer="layer1" />
  <defs
     id="defs1" />
  <g
     inkscape:label="Layer 1"
     inkscape:groupmode="layer"
     id="layer1">
    <circle
       style="fill:#ffc20d;fill-opacity:1;stroke-width:15.875;stroke-linejoin:bevel"
       id="path1"
       cx="143.60866"
       cy="133.82373"
       r="66.69207" />
    <path
       style="fill:#ffc20d;fill-opacity:1;stroke-width:15.875;stroke-linejoin:bevel"
       d="M 81.884474,76.219513 47.379696,21.114865 101.45435,63.344594 Z"
       id="path2"
       sodipodi:nodetypes="cccc" />
    <path
       style="fill:#ffc20d;fill-opacity:1;stroke-width:15.875;stroke-linejoin:bevel"
       d="M 113.81427,66.434574 107.11931,5.1499669 141.6241,57.679632 Z"
       id="path3"
       sodipodi:nodetypes="cccc" />
    <path
       style="fill:#ffc20d;fill-opacity:1;stroke-width:15.875;stroke-linejoin:bevel"
       d="M 146.25906,52.014666 168.91891,54.074653 157.07399,1.0299934 Z"
       id="path4" />
    <path
       style="fill:#ffc20d;fill-opacity:1;stroke-width:15.875;stroke-linejoin:bevel"
       d="m 173.03889,63.859593 25.74983,16.994888 21.62987,-55.619642 z"
       id="path5"
       sodipodi:nodetypes="cccc" />
    <path
       style="fill:#ffc20d;fill-opacity:1;stroke-width:15.875;stroke-linejoin:bevel"
       d="m 213.72363,84.459458 12.35992,25.749832 45.90808,-32.444787 z"
       id="path6" />
    <path
       style="fill:#ffc20d;fill-opacity:1;stroke-width:15.875;stroke-linejoin:bevel"
       d="m 218.8736,121.53922 -3.08999,33.47478 49.51306,-14.9349 z"
       id="path7"
       sodipodi:nodetypes="cccc" />
    <path
       style="fill:#ffc20d;fill-opacity:1;stroke-width:15.875;stroke-linejoin:bevel"
       d="m 225.05356,163.25396 -6.69496,23.68984 22.14486,-2.05999 z"
       id="path8" />
    <path
       style="fill:#ffc20d;fill-opacity:1;stroke-width:15.875;stroke-linejoin:bevel"
       d="m 207.02867,179.73385 -27.29481,22.65985 47.37969,32.44479 z"
       id="path9"
       sodipodi:nodetypes="cccc" />
    <path
       style="fill:#ffc20d;fill-opacity:1;stroke-width:15.875;stroke-linejoin:bevel"
       d="m 178.70386,211.66365 -30.38481,2.05998 19.56987,49.51306 z"
       id="path10" />
    <path
       style="fill:#ffc20d;fill-opacity:1;stroke-width:15.875;stroke-linejoin:bevel"
       d="M 140.5941,209.60366 111.23928,238.44347 97.849373,195.69875 Z"
       id="path11"
       sodipodi:nodetypes="cccc" />
    <path
       style="fill:#ffc20d;fill-opacity:1;stroke-width:15.875;stroke-linejoin:bevel"
       d="M 90.124424,203.4237 71.069545,179.73385 45.834706,216.81361 Z"
       id="path12" />
    <path
       style="fill:#ffc20d;fill-opacity:1;stroke-width:15.875;stroke-linejoin:bevel"
       d="M 75.189518,173.0389 67.464567,133.38414 13.904911,160.67897 Z"
       id="path13"
       sodipodi:nodetypes="cccc" />
    <path
       style="fill:#ffc20d;fill-opacity:1;stroke-width:15.875;stroke-linejoin:bevel"
       d="m 62.314601,126.68918 -4.634969,-21.62985 -46.864701,6.69495 z"
       id="path14"
       sodipodi:nodetypes="cccc" />
    <path
       style="fill:#ffc20d;fill-opacity:1;stroke-width:15.875;stroke-linejoin:bevel"
       d="M 72.614535,107.11931 86.519446,86.00445 36.049768,72.099538 Z"
       id="path15"
       sodipodi:nodetypes="cccc" />
    <path
       id="path16"
       style="fill:#000000;fill-opacity:1;stroke-width:15.875;stroke-linejoin:bevel"
       d="m 154.96558,103.6314 a 18.539881,24.204844 79.656731 0 0 0.19277,3.62932 18.539881,24.204844 79.656731 0 0 27.14014,13.89283 18.539881,24.204844 79.656731 0 0 20.48314,-22.584604 18.539881,24.204844 79.656731 0 0 -1.10173,-3.463417 z" />
    <path
       id="path17"
       style="fill:#000000;fill-opacity:1;stroke-width:15.875;stroke-linejoin:bevel"
       d="m 94.710966,115.99132 a 18.539881,24.204844 79.656731 0 0 0.19277,3.62932 18.539881,24.204844 79.656731 0 0 27.140144,13.89283 18.539881,24.204844 79.656731 0 0 20.48314,-22.5846 18.539881,24.204844 79.656731 0 0 -1.10173,-3.46342 z" />
    <rect
       style="fill:#000000;fill-opacity:1;stroke-width:15.875;stroke-linejoin:bevel"
       id="rect18"
       width="19.441126"
       height="2.8324819"
       x="118.5535"
       y="131.74258"
       transform="rotate(-9.7790516)" />
    <path
       id="path18"
       style="fill:#ffffff;fill-opacity:1;stroke-width:19.669;stroke-linejoin:bevel"
       d="m 197.94052,139.05397 a 37.174697,53.349098 79.793576 0 1 -37.5487,19.93513 37.174697,53.349098 79.793576 0 1 -41.7985,-5.39847 26.273846,40.78566 79.793576 0 0 0.25242,3.7905 26.273846,40.78566 79.793576 0 0 44.79591,18.63158 26.273846,40.78566 79.793576 0 0 35.48453,-33.08561 26.273846,40.78566 79.793576 0 0 -1.18566,-3.87313 z" />
    <path
       id="path19"
       style="fill:#000000;fill-opacity:1;stroke-width:26.0322;stroke-linejoin:bevel"
       d="M 132.06789 158.55568 L 132.06789 172.73052 A 26.273846 40.78566 79.793576 0 0 133.88845 173.54701 L 133.88845 158.9417 A 37.174697 53.349098 79.793576 0 1 132.06789 158.55568 z " />
    <path
       id="path21"
       style="fill:#000000;fill-opacity:1;stroke-width:26.0322;stroke-linejoin:bevel"
       d="M 164.72067 158.07974 A 37.174697 53.349098 79.793576 0 1 162.90011 158.49418 L 162.90011 176.14168 A 26.273846 40.78566 79.793576 0 0 163.64167 176.01249 A 26.273846 40.78566 79.793576 0 0 164.72067 175.80888 L 164.72067 158.07974 z " />
    <path
       id="path23"
       style="fill:#000000;fill-opacity:1;stroke-width:26.0322;stroke-linejoin:bevel"
       d="M 149.30456 160.15609 A 37.174697 53.349098 79.793576 0 1 147.484 160.18917 L 147.484 176.77162 A 26.273846 40.78566 79.793576 0 0 149.30456 176.90701 L 149.30456 160.15609 z " />
    <path
       id="path26"
       style="fill:#000000;fill-opacity:1;stroke-width:26.0322;stroke-linejoin:bevel"
       d="m 192.97792,143.94293 a 37.174697,53.349098 79.793576 0 1 -1.82057,1.7322 v 16.72456 a 26.273846,40.78566 79.793576 0 0 1.82057,-2.4412 z" />
    <path
       id="path27"
       style="fill:#000000;fill-opacity:1;stroke-width:26.0322;stroke-linejoin:bevel"
       d="M 180.13678 152.51057 A 37.174697 53.349098 79.793576 0 1 178.31622 153.38287 L 178.31622 171.43344 A 26.273846 40.78566 79.793576 0 0 180.13678 170.55236 L 180.13678 152.51057 z " />
  </g>
</svg>
