<?xml version="1.0" encoding="UTF-8" standalone="no"?>
<!-- Created with Inkscape (http://www.inkscape.org/) -->

<svg
   width="1028"
   height="1028"
   viewBox="0 0 271.99163 271.99163"
   version="1.1"
   id="svg1"
   inkscape:version="1.4.3 (0d15f75042, 2025-12-25)"
   sodipodi:docname="fat-pink-cat.svg"
   inkscape:export-filename="fat-pink-cat.png"
   inkscape:export-xdpi="96"
   inkscape:export-ydpi="96"
   xmlns:inkscape="http://www.inkscape.org/namespaces/inkscape"
   xmlns:sodipodi="http://sodipodi.sourceforge.net/DTD/sodipodi-0.dtd"
   xmlns="http://www.w3.org/2000/svg"
   xmlns:svg="http://www.w3.org/2000/svg">
  <sodipodi:namedview
     id="namedview1"
     pagecolor="#505050"
     bordercolor="#eeeeee"
     borderopacity="1"
     inkscape:showpageshadow="0"
     inkscape:pageopacity="0"
     inkscape:pagecheckerboard="true"
     inkscape:deskcolor="#505050"
     inkscape:document-units="px"
     inkscape:zoom="0.51375727"
     inkscape:cx="416.53912"
     inkscape:cy="552.79023"
     inkscape:window-width="1707"
     inkscape:window-height="995"
     inkscape:window-x="0"
     inkscape:window-y="0"
     inkscape:window-maximized="1"
     inkscape:current-layer="layer1" />
  <defs
     id="defs1">
    <inkscape:path-effect
       effect="spiro"
       id="path-effect18"
       is_visible="true"
       lpeversion="1" />
  </defs>
  <g
     inkscape:label="Layer 1"
     inkscape:groupmode="layer"
     id="layer1">
    <g
       id="g20"
       transform="matrix(1.2740739,0,0,1.2740739,-70.950789,-46.740323)">
      <path
         style="fill:none;fill-opacity:1;stroke:#ff95ef;stroke-width:15.875;stroke-linejoin:bevel;stroke-dasharray:none;stroke-opacity:1"
         d="m 140.0791,213.20863 c 8.06048,-14.8643 23.8446,-25.25384 40.68474,-26.77982 9.37894,-0.84988 18.7799,0.876 28.18847,1.28281 4.70429,0.2034 9.44985,0.0732 14.06407,-0.86519 4.61422,-0.93843 9.10814,-2.712 12.85211,-5.56759 3.58291,-2.73274 6.41427,-6.4246 8.20026,-10.56167 1.78599,-4.13707 2.53076,-8.70862 2.2327,-13.20487 -0.5961,-8.9925 -5.43444,-17.49477 -12.49295,-23.09816 -5.22522,-4.14803 -11.48254,-6.7388 -17.29509,-10.01344 -2.90628,-1.63732 -5.72566,-3.46328 -8.19721,-5.70352 -2.47156,-2.24024 -4.59389,-4.91314 -5.9225,-7.97289 -1.44411,-3.32574 -1.91081,-7.069 -1.32751,-10.64751 0.5833,-3.578522 2.21457,-6.979802 4.64007,-9.674797 2.42549,-2.694995 5.63674,-4.674287 9.13426,-5.630011 3.49752,-0.955723 7.26908,-0.884538 10.72804,0.202484"
         id="path18"
         inkscape:original-d="m 140.0791,213.20863 c 13.56158,-9.09827 27.12316,-17.68155 40.68474,-26.77982 13.56158,-9.09828 36.56477,-3.77665 55.10465,-5.14997 18.53988,-1.37333 -1.20166,-31.07147 -2.05999,-46.8647 -0.85832,-15.79323 -20.9432,-15.79323 -31.4148,-23.68985 -10.4716,-7.89662 15.4499,-17.166556 23.17486,-25.749834"
         inkscape:path-effect="#path-effect18" />
      <ellipse
         style="fill:#ff95ef;fill-opacity:1;stroke-width:1.05833;stroke-linejoin:bevel"
         id="path1"
         cx="135.99582"
         cy="176.38637"
         rx="61.542107"
         ry="71.327042" />
      <ellipse
         style="fill:#ff95ef;fill-opacity:1;stroke-width:1.05833;stroke-linejoin:bevel"
         id="path2"
         cx="138.0191"
         cy="90.639412"
         rx="38.109756"
         ry="39.139748" />
      <path
         style="fill:#ff95ef;fill-opacity:1;stroke-width:1.05833;stroke-linejoin:bevel"
         d="M 108.14931,69.524554 V 39.139749 l 21.11486,19.05488 z"
         id="path3" />
      <path
         style="fill:#ff95ef;fill-opacity:1;stroke-width:1.05833;stroke-linejoin:bevel"
         d="m 153.46902,61.284607 25.74983,-11.329928 -9.78494,22.14486 z"
         id="path4" />
      <ellipse
         style="fill:#ffffff;fill-opacity:1;stroke-width:1.05833;stroke-linejoin:bevel"
         id="path5"
         cx="154.24152"
         cy="81.884476"
         rx="9.5274391"
         ry="6.6949568" />
      <ellipse
         style="fill:#000000;fill-opacity:1;stroke-width:0.829227;stroke-linejoin:bevel"
         id="ellipse5"
         cx="153.33778"
         cy="81.465172"
         rx="7.4649768"
         ry="5.2456589" />
      <ellipse
         style="fill:#ffffff;fill-opacity:1;stroke-width:1.05833;stroke-linejoin:bevel"
         id="ellipse6"
         cx="123.72796"
         cy="81.111984"
         rx="9.5274391"
         ry="6.6949568" />
      <ellipse
         style="fill:#000000;fill-opacity:1;stroke-width:0.829227;stroke-linejoin:bevel"
         id="ellipse7"
         cx="124.75546"
         cy="80.95018"
         rx="7.4649768"
         ry="5.2456589" />
      <path
         style="fill:#000000;fill-opacity:1;stroke-width:1.05833;stroke-linejoin:bevel"
         d="m 133.12665,90.38192 9.78493,0.386249 -5.02121,6.952456 z"
         id="path7" />
      <path
         style="fill:#000000;fill-opacity:1;stroke:#000000;stroke-width:1.05833;stroke-linejoin:bevel;stroke-dasharray:none;stroke-opacity:1"
         d="m 137.89037,97.720627 -5.02122,3.862473"
         id="path8" />
      <path
         style="fill:#000000;fill-opacity:1;stroke:#000000;stroke-width:1.05833;stroke-linejoin:bevel;stroke-dasharray:none;stroke-opacity:1"
         d="m 137.89037,97.720627 5.27871,3.733723"
         id="path9" />
      <path
         style="fill:none;fill-opacity:1;stroke:#000000;stroke-width:1.05833;stroke-linejoin:bevel;stroke-dasharray:none;stroke-opacity:1"
         d="m 129.52167,95.403139 c -16.35115,1.931239 -24.97734,-5.536215 -24.97734,-5.536215"
         id="path10" />
      <path
         style="fill:none;fill-opacity:1;stroke:#000000;stroke-width:1.05833;stroke-linejoin:bevel;stroke-dasharray:none;stroke-opacity:1"
         d="m 129.77917,98.750618 c 0,0 -16.2224,6.952462 -22.91735,4.248722"
         id="path11"
         sodipodi:nodetypes="cc" />
      <path
         style="fill:none;fill-opacity:1;stroke:#000000;stroke-width:1.05833;stroke-linejoin:bevel;stroke-dasharray:none;stroke-opacity:1"
         d="m 146.64531,94.244397 c 0,0 15.9649,0.772496 19.69862,-1.029994"
         id="path12" />
      <path
         style="fill:none;fill-opacity:1;stroke:#000000;stroke-width:1.05833;stroke-linejoin:bevel;stroke-dasharray:none;stroke-opacity:1"
         d="m 148.06155,98.750618 c 0,0 10.81493,10.428682 16.86614,6.823702"
         id="path13" />
      <path
         id="path14"
         style="fill:#ffffff;fill-opacity:1;stroke:none;stroke-width:1.05833;stroke-linejoin:bevel;stroke-dasharray:none;stroke-opacity:1"
         d="m 137.7616,143.16902 a 43.259724,55.362144 0 0 0 -43.259887,55.36199 43.259724,55.362144 0 0 0 15.589227,42.55553 61.542107,71.327042 0 0 0 25.90487,6.62699 61.542107,71.327042 0 0 0 33.39745,-11.41687 43.259724,55.362144 0 0 0 11.62822,-37.76565 43.259724,55.362144 0 0 0 -43.25988,-55.36199 z" />
      <ellipse
         style="fill:#ff95ef;fill-opacity:1;stroke:none;stroke-width:1.05833;stroke-linejoin:bevel;stroke-dasharray:none;stroke-opacity:1"
         id="path15"
         cx="187.45879"
         cy="210.24741"
         rx="11.587426"
         ry="31.028551" />
      <ellipse
         style="fill:#ff95ef;fill-opacity:1;stroke:none;stroke-width:1.16896;stroke-linejoin:bevel;stroke-dasharray:none;stroke-opacity:1"
         id="ellipse15"
         cx="84.691063"
         cy="209.47491"
         rx="14.136529"
         ry="31.028551" />
      <ellipse
         style="fill:#ff95ef;fill-opacity:1;stroke:none;stroke-width:1.05833;stroke-linejoin:bevel;stroke-dasharray:none;stroke-opacity:1"
         id="ellipse16"
         cx="58.743298"
         cy="193.01466"
         rx="7.0812044"
         ry="26.522329"
         transform="rotate(-16.488835)" />
      <ellipse
         style="fill:#ff95ef;fill-opacity:1;stroke:none;stroke-width:1.05833;stroke-linejoin:bevel;stroke-dasharray:none;stroke-opacity:1"
         id="ellipse17"
         cx="191.93513"
         cy="135.3773"
         rx="7.0812044"
         ry="26.522329"
         transform="rotate(11.336152)" />
      <ellipse
         style="fill:#ff95ef;fill-opacity:1;stroke:none;stroke-width:1.37295;stroke-linejoin:bevel;stroke-dasharray:none;stroke-opacity:1"
         id="path17"
         cx="182.18008"
         cy="235.48222"
         rx="11.201179"
         ry="8.8836927" />
      <ellipse
         style="fill:#ff95ef;fill-opacity:1;stroke:none;stroke-width:1.37295;stroke-linejoin:bevel;stroke-dasharray:none;stroke-opacity:1"
         id="ellipse18"
         cx="88.708183"
         cy="233.67973"
         rx="11.201179"
         ry="8.8836927" />
      <path
         style="fill:#ffffff;fill-opacity:1;stroke:none;stroke-width:15.875;stroke-linejoin:bevel;stroke-dasharray:none;stroke-opacity:1"
         d="m 111.75428,63.730841 -0.77249,-18.024883 10.17118,10.042434 z"
         id="path19" />
      <path
         style="fill:#ffffff;fill-opacity:1;stroke:none;stroke-width:15.875;stroke-linejoin:bevel;stroke-dasharray:none;stroke-opacity:1"
         d="M 161.96646,60.383362 173.42514,54.4609 168.40392,67.07832 Z"
         id="path20" />
    </g>
  </g>
</svg>
